<svg width="250" height="17" viewBox="0 0 250 17" fill="none" xmlns="http://www.w3.org/2000/svg">
<path d="M236.653 2.39911C248.269 3.89911 246.373 2.79911 246.136 3.49911C246.965 3.79911 247.795 3.99911 249.099 4.39911C248.151 4.99911 247.558 5.29911 246.847 5.69911C246.965 5.79911 247.203 5.99911 247.321 6.19911C247.203 6.29911 246.965 6.49911 246.847 6.49911C243.291 6.29911 239.735 7.29912 236.179 7.09912C232.504 6.89912 228.829 6.79912 225.155 7.09912C222.191 7.39912 219.346 7.49912 216.383 7.59912C215.435 7.59912 214.723 6.99911 213.656 7.49911C212.827 7.89911 211.523 7.59912 210.456 7.59912C209.271 7.59912 208.085 7.59912 206.9 7.59912C205.833 7.59912 204.766 7.59912 203.699 7.59912C202.633 7.59912 201.566 7.59912 200.499 7.59912C200.38 7.59912 200.38 7.69911 200.025 7.99911C201.092 8.09911 201.921 8.19911 202.751 8.29912C202.751 8.39911 202.751 8.49912 202.751 8.59912C201.684 8.59912 200.499 8.69911 199.432 8.69911C198.247 8.69911 197.061 8.69911 195.876 8.69911C195.639 8.69911 195.402 8.69912 195.283 8.59912C194.098 7.19912 192.794 7.39912 191.134 8.09912C190.542 8.39912 189.593 8.09912 188.882 8.09912C178.807 8.09912 168.612 8.09912 158.537 8.09912C157.47 8.09912 156.166 7.59912 155.218 8.59912C155.218 8.59912 154.981 8.59912 154.862 8.59912C153.914 7.69912 152.965 8.99912 152.136 8.59912C151.187 7.99912 150.595 8.09912 149.646 8.59912C149.409 8.79912 148.698 8.49911 148.224 8.29912C147.631 7.99911 147.631 7.69911 148.224 7.39911C148.105 7.29911 147.987 7.09912 147.868 7.09912C147.631 7.09912 147.394 7.09912 147.276 7.09912C147.039 7.39912 147.039 7.79911 146.802 7.99911C146.446 8.29911 145.972 8.59912 145.498 8.59912C144.786 8.59912 143.838 8.09912 143.245 8.29912C142.416 8.69911 141.823 8.59912 140.993 8.29912C140.4 8.09912 139.571 8.59912 138.741 8.59912C135.778 8.59912 132.696 8.59912 129.732 8.59912C129.377 8.19912 129.139 7.89911 128.902 7.49911C128.547 7.79911 128.073 8.09912 127.361 8.59912C126.057 8.89912 123.924 7.89911 122.62 9.69911C122.264 9.29911 121.909 8.99911 121.553 8.69911C118.945 9.29911 116.575 9.39911 114.085 8.69911C111.477 9.69911 108.87 8.79911 106.262 9.19911C106.262 8.69911 106.499 8.09912 106.38 8.09912C105.432 7.79912 105.551 8.59912 105.313 9.09912C104.247 9.09912 103.061 9.09912 101.876 9.09912C101.757 9.49912 101.52 9.79912 101.402 10.0991C101.283 9.99912 101.046 9.99911 100.928 9.89911C100.335 9.09911 99.2681 8.79912 98.4383 9.09912C96.5417 9.89912 94.5266 9.49912 92.5115 9.59912C90.8519 9.69912 89.0739 9.59911 87.4144 9.99911C88.4812 10.0991 89.4295 10.1991 90.4963 10.2991C88.1256 10.4991 85.6363 11.5991 83.8583 9.79911C82.6729 9.99911 81.606 10.1991 80.6577 10.1991C77.5758 10.1991 74.4938 10.1991 71.4118 10.1991C71.1748 10.6991 71.0562 10.9991 70.9377 11.4991C70.4636 10.7991 69.9894 10.2991 69.5153 9.79911C69.2782 10.4991 68.804 11.2991 67.8557 10.7991C66.9074 10.1991 66.3148 10.5991 65.3665 10.7991C63.7069 11.0991 61.9289 10.8991 60.2694 11.1991C61.0991 11.2991 61.9289 11.3991 62.7586 11.4991C62.6401 11.6991 62.5216 11.8991 62.403 11.8991C60.0323 11.8991 57.6615 11.9991 55.2908 11.8991C53.5127 11.7991 51.8532 11.1991 50.0752 11.3991C49.8381 11.3991 49.4825 11.4991 49.2454 11.7991C50.0752 11.8991 51.0235 11.9991 51.8532 11.9991C49.1269 12.1991 46.519 12.8991 43.7927 11.9991C42.6073 11.5991 41.0663 11.8991 39.6439 12.1991C40.2366 12.2991 40.8293 12.3991 41.4219 12.5991C41.3034 12.6991 41.1849 12.9991 41.1849 12.9991C40.118 12.9991 39.0512 12.9991 37.9844 12.9991C37.3917 11.7991 36.5619 13.5991 35.6136 12.7991C35.0209 12.2991 33.8356 13.4991 32.6502 12.5991C32.0575 12.0991 30.398 12.4991 29.2126 12.8991C30.0424 12.9991 30.8721 13.0991 31.7019 13.1991C31.4648 13.3991 31.3463 13.5991 31.2277 13.5991C29.5682 13.5991 28.0272 13.5991 26.3677 13.5991C23.1672 13.6991 20.0852 13.6991 17.0033 14.1991C15.3437 14.4991 13.6842 14.4991 12.1432 14.6991C10.7208 14.7991 9.41689 15.2991 8.8242 16.7991C8.23152 16.7991 7.04614 16.9991 6.92761 16.7991C6.45346 15.7991 5.03101 15.6991 4.6754 14.8991C4.31979 14.0991 3.84564 13.8991 3.13442 13.4991C1.59343 12.7991 1.23782 11.3991 2.06758 9.99911C1.59343 9.59911 1.23782 9.19911 0.763672 8.89911C0.763672 8.69911 0.763672 8.49911 0.882209 8.39911C2.06758 7.19911 3.49003 6.69911 5.38662 6.49911C8.58713 6.19911 11.6691 5.39911 14.8696 5.49911C16.7662 4.49911 18.7813 5.09911 20.7965 4.89911C22.3374 4.79911 23.8784 4.49911 25.4194 4.39911C26.9604 4.29911 28.6199 4.69912 29.9238 4.29912C31.8204 3.69912 33.717 3.79911 35.4951 3.89911C37.8658 4.09911 39.9995 3.19912 42.3702 3.29912C44.741 3.29912 47.2303 3.69911 49.4825 3.19911C53.8683 2.39911 58.2542 3.19911 62.5216 2.69911C67.8557 2.09911 73.1899 2.69912 78.4055 2.09912C85.3992 1.29912 92.5115 1.89911 99.5052 1.69911C100.335 1.69911 101.283 1.69911 102.113 1.69911C102.824 1.69911 103.654 1.89911 104.128 1.19911C104.484 2.09911 105.313 1.09911 106.025 1.49911C106.38 1.79911 107.447 1.19911 108.277 1.19911C109.107 1.09911 110.055 1.19911 110.885 1.19911C111.596 1.19911 112.426 1.19911 113.137 1.19911C113.967 1.19911 114.915 1.19911 115.745 1.19911C116.575 1.19911 117.523 1.19911 118.353 1.19911C119.064 1.19911 119.894 1.19911 120.605 1.19911C121.435 1.19911 122.383 1.09911 123.213 1.19911C124.279 1.29911 125.228 0.999121 126.295 1.59912C126.769 1.89912 127.954 1.19911 128.902 1.19911C131.629 1.09911 134.237 1.19911 136.963 1.19911C137.911 1.19911 139.097 1.59911 139.926 0.699112C140.519 0.0991119 140.875 1.69912 141.704 0.799118C141.941 0.499118 143.364 0.499112 143.482 0.699112C144.312 1.79911 145.261 0.0991181 145.853 0.799118C146.683 1.79912 147.276 0.599112 147.987 0.699112C148.342 0.699112 148.817 0.799109 149.172 0.899109C149.883 0.999109 150.95 1.39911 151.187 1.19911C152.017 0.299112 153.084 1.19912 154.032 0.799118C154.981 0.399118 156.403 0.699112 157.47 0.699112C178.569 0.699112 199.669 0.699112 220.769 0.699112C223.614 0.699112 226.459 1.29911 229.185 0.199112C230.607 1.19911 232.03 0.0991211 233.452 0.0991211C237.957 0.299121 242.461 0.199112 247.321 0.199112C247.203 0.599112 247.084 1.19911 246.847 1.19911C244.595 1.39911 242.343 1.89912 239.972 1.79912C235.23 1.69912 230.489 1.79912 225.747 1.79912C225.629 1.79912 225.392 1.99912 225.273 2.09912C225.51 2.19912 225.747 2.29911 225.866 2.39911C226.459 2.49911 226.933 3.09911 227.644 2.39911C227.762 2.19911 228.474 2.39911 228.948 2.39911C235.23 2.19911 241.513 2.19911 236.653 2.39911C225.392 2.49911 225.392 2.39912 225.392 2.29912C224.443 2.09912 223.377 1.79912 222.428 1.59912C221.836 1.49912 218.517 1.59912 217.924 1.59912C217.45 1.59912 216.857 1.39912 216.738 1.59912C215.909 2.49912 214.723 2.09912 213.775 2.09912C198.484 2.09912 183.192 2.09912 167.901 2.09912C166.953 2.09912 166.005 2.49911 165.175 1.69911C165.056 1.59911 164.464 1.49912 164.345 1.59912C163.397 2.49912 162.093 1.99912 161.026 2.09912C158.774 2.29912 156.403 1.79912 154.151 2.59912C153.558 2.79912 152.491 2.49912 151.78 2.29912C150.239 1.99912 148.698 1.79911 147.157 2.39911C146.683 2.59911 145.972 1.79912 145.498 2.59912C144.668 1.69912 143.245 1.89911 142.534 2.19911C141.349 2.69911 140.519 1.69912 139.452 2.09912C139.215 2.19912 138.978 2.09912 138.86 2.29912C138.385 2.79912 137.911 2.69911 137.2 2.39911C136.489 2.09911 135.422 1.99911 134.711 2.19911C133.762 2.49911 132.696 2.69912 131.984 2.59912C130.918 2.39912 129.969 2.69911 128.902 2.69911C120.96 2.89911 113.137 2.39911 105.195 3.19911C99.2681 3.79911 93.3412 2.99911 87.2958 3.69911C81.8431 4.39911 76.2719 3.49912 70.7006 4.29912C66.3148 4.89912 61.8103 4.09911 57.4245 4.89911C55.4093 5.29911 53.1571 4.79911 51.0235 4.99911C49.0083 5.09911 47.1117 4.79911 45.0966 5.39911C43.2 5.99911 40.8293 5.49912 38.6956 5.59912C38.34 5.59912 37.9844 5.69912 37.7473 5.79912C38.2214 6.19912 38.577 6.19911 38.9327 6.19911C42.7258 6.09911 46.519 6.19911 50.3122 5.69911C54.9352 5.09911 59.5581 5.89911 64.2996 5.19911C68.6855 4.49911 73.1899 5.69912 77.5758 4.59912C78.1685 4.39912 78.7612 5.59912 79.3538 4.59912C80.0651 5.49912 80.6578 4.49911 81.369 4.49911C86.7031 4.39911 92.0373 4.89911 97.253 3.99911C97.9642 3.89911 99.031 3.79912 99.3866 4.09912C100.335 4.79912 100.809 3.69911 101.52 3.89911C102.232 4.09911 103.061 3.89911 103.772 3.89911C108.04 3.89911 112.426 3.89911 116.693 3.89911C117.76 3.89911 119.064 4.29911 120.012 3.39911C120.131 3.29911 120.723 3.59911 121.079 3.69911C121.553 3.79911 122.383 3.99911 122.501 3.89911C123.094 3.19911 123.45 3.79911 123.924 3.89911C124.398 3.99911 124.991 3.39911 125.583 3.39911C126.532 3.39911 127.48 2.99911 128.31 3.89911C128.902 3.29911 129.851 3.39911 130.562 3.39911C131.392 3.39911 132.34 3.19911 132.933 3.89911C133.525 3.09911 134.474 3.39911 135.303 3.39911C140.638 3.39911 146.09 3.49911 151.424 3.39911C156.759 3.29911 162.093 3.99911 167.308 2.89911C167.901 3.39911 168.849 3.09911 169.561 3.19911C170.509 3.29911 171.457 2.89911 172.406 2.89911C173.472 2.89911 174.776 2.59911 175.725 3.39911C176.791 2.39911 178.214 2.89911 179.399 2.89911C193.624 2.89911 207.848 2.89911 222.073 2.89911C223.258 2.69911 224.325 2.69911 236.653 2.39911Z" fill="black"/>
</svg>
