<svg width="324" height="324" viewBox="0 0 324 324" fill="none" xmlns="http://www.w3.org/2000/svg">
<path d="M320.181 161.555C316.344 176.543 310.956 190.758 302.51 203.244C293.628 216.369 287.33 230.784 280.494 245.032C267.896 270.954 251.366 293.519 226.643 308.299C206.006 320.765 183.313 325.904 158.58 321.977C140.505 319.155 123.353 312.745 107.671 302.043C106.004 300.942 104.337 299.841 102.372 299.617C85.1519 297.255 70.1609 289.386 56.4511 278.039C39.6702 264.186 25.8582 247.865 15.6299 228.494C7.81426 213.654 2.52389 197.857 1.10257 181.521C-0.535476 162.792 1.04547 144.678 8.57491 127.836C10.3604 123.837 11.0645 119.114 13.2146 115.617C15.8418 111.3 17.6148 106.522 20.2212 102.295C24.763 95.0855 27.5964 86.9558 31.2632 79.3766C35.9676 69.7948 42.07 61.2302 48.8267 53.1601C58.2084 42.0317 68.9946 32.31 81.6517 25.3033C92.8734 19.1091 104.412 13.2073 117.311 10.1523C126.568 7.90067 135.612 4.90441 145.013 3.27901C175.526 -2.04014 205.951 -0.312095 236.244 11.1623C259.652 20.007 279.735 34.1147 295.706 54.4029C318 82.6699 326.575 114.221 322.181 148.708C321.671 153.007 320.871 157.312 320.181 161.555ZM244.603 288.698C245.857 289.089 246.555 288.144 247.19 287.47C253.572 281.027 259.547 274.264 264.325 266.449C265.908 263.745 269.179 262.051 269.296 258.211C267.385 258.584 266.287 259.599 265.802 261.289C264.935 264.217 262.918 266.302 261.06 268.533C255.574 275.255 250.157 282.095 244.672 288.817C237.892 294.069 231.112 299.322 224.312 304.665C228.625 302.617 232.779 300.423 236.404 297.191C239.325 294.516 243.086 292.781 244.603 288.698ZM137.037 289.196C145.503 290.38 152.378 289.712 158.864 286.984C165.461 284.194 170.192 279.079 175.261 274.166C182.126 267.292 187.614 259.311 192.316 250.989C196.5 243.667 200.071 235.671 202.925 227.451C209.81 207.985 214.773 188.115 213.581 166.617C212.328 144.131 206.64 122.977 193.805 103.666C172.888 72.3394 141.283 58.2271 107.344 62.5758C105.165 62.8658 103.034 63.3645 101.411 64.9908C90.9266 75.485 82.3844 87.5535 75.7571 100.897C66.7088 118.913 61.4984 138.609 59.5133 159.311C56.7137 188.965 60.921 217.798 75.6666 245.07C83.2488 259.255 92.0665 272.663 106.789 280.448C111.15 282.776 115.861 286.086 120.498 283.461C125.509 280.467 130.445 276.966 134.41 272.678C151.029 254.307 158.782 231.914 157.204 205.839C156.662 195.688 152.484 186.73 145.54 178.946C144.246 177.477 141.166 175.839 142.783 173.823C144.227 172.141 147.059 173.604 149.063 174.907C149.807 175.43 150.53 176.043 151.142 176.718C158.968 185.262 164.696 194.993 166.484 206.404C170.216 230.632 164.189 252.206 152.449 271.903C148.563 278.348 143.411 283.623 137.037 289.196ZM196.613 275.683C197.682 275.628 198.261 275.615 198.682 275.455C212.247 269.507 224.671 261.846 236.683 253.475C245.939 247.056 254.219 239.461 262.113 231.455C267.507 225.964 272.764 220.237 275.383 212.622C281.881 194.005 285.939 174.725 286.482 154.446C287.288 125.528 282.893 97.5082 268.229 71.1342C260.77 57.6653 250.742 46.5939 238.261 38.2471C217.942 24.7444 196.134 23.9573 174.216 27.3998C159.988 29.556 146.789 34.7464 134.119 40.9739C128.371 43.8344 122.697 47.2027 117.497 52.269C124.404 53.549 130.561 53.917 136.709 55.1545C157.546 59.3217 175.761 69.4552 191.381 84.5949C212.661 105.181 224.3 130.515 227.528 159.431C231.55 196.153 223.035 229.356 206.147 260.144C203.332 265.275 199.98 270.239 196.613 275.683ZM55.0442 67.0174C56.9943 67.722 58.2361 67.3336 59.2716 66.5903C64.6907 62.6582 70.8995 60.7165 77.2875 58.8306C80.992 57.7561 84.6965 56.6815 88.3801 55.6973C94.416 54.0894 98.5537 49.4673 103.4 45.9381C117.759 35.2947 133.404 26.99 150.795 21.943C171.58 15.9184 192.503 14.2976 214.482 20.1773C226.254 23.264 237.023 27.7828 247.32 34.7709C264.016 46.0785 276.071 61.2704 285.247 78.9568C298.932 105.413 302.658 133.418 301.646 161.982C301.526 164.173 301.694 166.358 301.774 168.514C304.374 163.898 305.23 158.931 306.445 154.077C311.511 133.754 310.573 112.82 304.518 92.4236C298.628 72.563 287.472 55.132 271.381 41.2022C256.894 28.6445 240.705 19.7236 222.668 15.0723C202.818 9.95301 182.995 9.30002 163.244 11.6733C129.747 15.772 99.0741 26.3712 73.1202 47.7443C66.4365 53.4143 60.3174 59.5511 55.0442 67.0174ZM81.7822 270.621C80.0174 266.195 76.5129 263.068 73.9126 259.35C59.0546 237.567 51.0055 213.739 47.9859 188.086C44.9725 162.823 48.7557 138.903 56.0266 115.681C60.5183 101.188 67.5457 87.7751 76.0399 75.4979C76.7378 74.5525 78.3942 73.615 77.0107 72.1179C75.9439 70.9133 74.9418 72.3454 73.9688 72.8175C63.8805 77.4266 55.1612 84.0129 47.4878 91.8942C40.4499 99.1014 34.1079 106.622 32.2142 117.758C23.6729 167.331 34.5895 212.888 66.5223 254.334C71.1186 260.224 76.0671 265.836 81.7822 270.621ZM16.0448 151.677C9.91786 179.519 13.1625 206.696 28.6206 232.542C42.339 255.52 59.145 275.099 84.1161 285.497C43.4452 249.469 20.7568 204.992 16.0448 151.677ZM248.832 262.009C248.148 262.475 247.375 262.912 246.782 263.406C232.699 273.263 217.675 281.374 201.826 288.064C192.884 291.867 182.966 293.235 174.272 297.212C164.536 301.544 154.973 305.541 144.153 306.24C144.063 306.212 144.049 306.692 143.903 307.325C164.905 312.028 184.836 309.711 203.487 301.277C222.049 292.815 238.554 281.193 248.832 262.009ZM79.7009 88.3647C76.8132 91.7289 74.0902 95.6289 73.2548 100.505C75.4195 96.5277 77.605 92.4602 79.7009 88.3647ZM85.8074 77.2817C86.1241 77.5742 86.3512 77.8388 86.6471 78.2217C88.8306 75.4134 90.9932 72.6954 93.1766 69.8871C90.3806 72.02 87.4054 74.0971 85.8074 77.2817Z" fill="#F5F8FF"/>
</svg>
