<svg width="311" height="326" viewBox="0 0 311 326" fill="none" xmlns="http://www.w3.org/2000/svg">
<path d="M0 205.034C0.371008 189.401 2.41155 174.05 7.79117 159.447C13.449 144.095 16.3244 128.276 19.7562 112.456C26.1561 83.6252 37.1008 56.8536 57.6918 35.1368C74.8509 16.8834 95.6273 5.08888 120.392 1.43821C138.479 -1.2764 156.473 -0.246719 174.003 5.36971C175.858 5.93135 177.713 6.49299 179.661 6.11856C196.82 3.21674 213.051 6.30578 228.819 13.1391C248.112 21.4701 265.085 33.0774 279.276 48.7098C290.128 60.6915 298.754 74.3581 303.763 89.7097C309.514 107.308 312.018 125.28 308.493 143.815C307.659 148.214 308.03 152.988 306.731 157.013C305.154 161.974 304.505 167.123 302.928 171.99C300.146 180.321 299.218 189.027 297.363 197.451C294.951 208.123 290.963 218.232 286.233 228.061C279.647 241.634 271.392 254.271 260.726 264.849C251.265 274.209 241.434 283.383 229.654 290.216C221.214 295.177 213.144 300.794 204.425 305.193C176.136 319.515 146.363 327.004 114.549 325.038C89.9695 323.54 67.4307 315.958 47.489 301.168C19.6634 280.575 4.35935 252.68 0.92752 218.045C0.46376 213.739 0.278256 209.34 0 205.034ZM44.7065 59.4746C43.408 59.4746 42.9442 60.5979 42.4804 61.4403C37.7501 69.5842 33.4835 77.9152 30.6082 86.9015C29.6807 89.9905 26.8981 92.6115 27.6401 96.3558C29.4024 95.4197 30.2372 94.1092 30.3299 92.3307C30.5154 89.2416 31.9995 86.6207 33.298 83.906C37.1008 75.7622 40.8109 67.5248 44.6137 59.381C49.9934 52.2669 55.373 45.1527 60.7526 37.945C57.0425 41.2212 53.5179 44.5911 50.7354 48.8034C48.5093 52.2669 45.263 55.0751 44.7065 59.4746ZM148.496 26.6185C140.056 28.0226 133.563 30.7372 127.905 35.324C122.154 40.0043 118.723 46.3696 114.92 52.6413C109.818 61.3467 106.294 70.7074 103.604 80.1618C101.192 88.4928 99.5229 97.2919 98.5954 106.091C96.2766 126.965 95.9056 147.652 101.842 168.059C108.056 189.401 118.259 208.123 134.954 222.913C162.131 246.876 195.8 250.995 227.613 236.579C229.654 235.643 231.602 234.52 232.808 232.46C240.599 219.168 246.164 204.94 249.596 190.056C254.326 169.931 254.975 149.337 252.286 128.744C248.39 99.2576 237.909 72.6732 217.596 50.7691C207.115 39.3491 195.614 29.0523 179.661 25.9633C174.93 25.0272 169.643 23.2487 165.748 27.1802C161.574 31.5797 157.586 36.4473 154.71 41.7829C142.745 64.5294 140.241 88.4928 147.568 113.205C150.351 122.847 156.38 130.242 164.82 135.671C166.397 136.7 169.736 137.356 168.623 139.789C167.603 141.849 164.542 141.287 162.316 140.632C161.481 140.351 160.647 139.977 159.905 139.509C150.444 133.611 142.745 125.936 138.479 115.452C129.482 93.1732 130.502 70.5202 137.459 47.9609C139.777 40.566 143.58 33.9199 148.496 26.6185ZM93.9578 57.6025C92.9375 57.9769 92.381 58.1641 92.01 58.4449C80.2305 68.2737 69.935 79.4129 60.1961 91.1138C52.6832 100.1 46.376 109.929 40.5326 120.038C36.5443 126.965 32.7415 134.079 31.9067 142.223C29.7734 162.162 30.1444 182.006 34.1328 201.757C39.7906 229.933 50.2716 255.675 70.3061 276.737C80.5088 287.501 92.6593 295.177 106.572 299.483C129.204 306.41 150.444 300.606 170.849 290.684C184.113 284.319 195.707 275.333 206.559 265.504C211.475 261.011 216.205 256.049 220.101 249.591C213.144 250.433 207.115 251.931 200.901 252.586C179.846 254.833 159.997 250.527 141.54 240.604C116.404 227.125 99.5229 206.157 89.9695 179.198C77.9117 144.938 78.7465 110.303 88.2072 75.4814C89.784 69.6778 91.9173 63.8741 93.9578 57.6025ZM277.143 216.547C275.103 216.454 273.99 217.203 273.155 218.232C268.795 223.661 263.23 227.406 257.48 231.15C254.141 233.303 250.801 235.456 247.462 237.515C241.99 240.885 239.022 246.595 235.126 251.463C223.625 266.065 210.362 278.796 194.687 288.906C175.951 300.981 156.102 308.844 133.563 309.78C121.505 310.342 110.097 309.218 98.5954 305.568C79.9523 299.67 64.9264 288.625 52.1266 274.303C33.0197 252.867 23.188 226.938 17.8084 199.043C17.4374 196.89 16.7881 194.83 16.2316 192.771C14.7476 198.013 15.0258 203.068 14.9331 208.123C14.5621 229.278 20.1272 249.216 30.5154 267.095C40.6254 284.506 55.2802 297.985 73.9234 306.597C90.7115 314.367 108.334 318.111 126.792 317.175C147.105 316.145 166.397 310.81 184.948 302.572C216.39 288.531 243.66 269.061 263.972 240.604C269.166 233.116 273.711 225.346 277.143 216.547ZM206.002 27.929C208.692 31.6733 212.773 33.639 216.112 36.4473C235.312 53.0157 248.39 73.6093 257.016 97.4791C265.549 120.974 267.219 145.219 265.364 169.837C264.251 185.189 260.448 200.26 254.975 214.675C254.512 215.798 253.12 217.203 254.79 218.232C256.088 219.075 256.738 217.39 257.572 216.641C266.291 209.152 273.248 200.166 278.905 190.244C284.1 181.164 288.552 171.99 287.902 160.664C285.12 110.21 264.436 69.4906 224.367 39.0683C218.617 34.7623 212.588 30.8308 206.002 27.929ZM295.972 123.034C295.694 94.2964 286.511 69.0225 265.827 48.7098C247.462 30.6436 226.871 16.7898 200.437 14.2624C247.741 36.8217 279.555 72.954 295.972 123.034ZM46.5615 86.527C47.118 85.8718 47.7673 85.2166 48.2311 84.5613C59.6396 70.8011 72.3466 58.4449 86.1666 47.2121C93.9578 40.8468 103.233 36.5409 110.746 30.082C119.186 22.9678 127.534 16.2281 137.83 12.2966C137.922 12.2966 137.83 11.8286 137.83 11.1733C116.497 12.9519 97.7607 21.1893 81.6218 34.9495C65.5757 48.7098 52.2194 64.9038 46.5615 86.527ZM248.575 203.349C250.616 199.23 252.378 194.643 252.1 189.682C250.894 194.175 249.688 198.762 248.575 203.349ZM245.144 215.892C244.773 215.705 244.494 215.518 244.123 215.237C242.639 218.607 241.155 221.883 239.671 225.253C241.897 222.351 244.309 219.449 245.144 215.892Z" fill="#FCE5E7" fill-opacity="0.6"/>
</svg>
